<svg xmlns="http://www.w3.org/2000/svg">
	<symbol id="vite-logo" aria-hidden="true" role="img" class="iconify iconify--logos" width="31.88" height="32" preserveAspectRatio="xMidYMid meet" viewBox="0 0 256 257">
		<g>
    <defs><linearGradient id="IconifyId1813088fe1fbc01fb466" x1="-.828%" x2="57.636%" y1="7.652%" y2="78.411%"><stop offset="0%" stop-color="#41D1FF"/><stop offset="100%" stop-color="#BD34FE"/></linearGradient><linearGradient id="IconifyId1813088fe1fbc01fb467" x1="43.376%" x2="50.316%" y1="2.242%" y2="89.03%"><stop offset="0%" stop-color="#FFEA83"/><stop offset="8.333%" stop-color="#FFDD35"/><stop offset="100%" stop-color="#FFA800"/></linearGradient></defs><path fill="url(#IconifyId1813088fe1fbc01fb466)" d="M255.153 37.938L134.897 252.976c-2.483 4.44-8.862 4.466-11.382.048L.875 37.958c-2.746-4.814 1.371-10.646 6.827-9.67l120.385 21.517a6.537 6.537 0 0 0 2.322-.004l117.867-21.483c5.438-.991 9.574 4.796 6.877 9.62Z"/><path fill="url(#IconifyId1813088fe1fbc01fb467)" d="M185.432.063L96.44 17.501a3.268 3.268 0 0 0-2.634 3.014l-5.474 92.456a3.268 3.268 0 0 0 3.997 3.378l24.777-5.718c2.318-.535 4.413 1.507 3.936 3.838l-7.361 36.047c-.495 2.426 1.782 4.5 4.151 3.78l15.304-4.649c2.372-.72 4.652 1.36 4.15 3.788l-11.698 56.621c-.732 3.542 3.979 5.473 5.943 2.437l1.313-2.028l72.516-144.72c1.215-2.423-.88-5.186-3.54-4.672l-25.505 4.922c-2.396.462-4.435-1.77-3.759-4.114l16.646-57.705c.677-2.35-1.37-4.583-3.769-4.113Z"/>
	 	</g>
	</symbol>
	<symbol id="play" viewBox="0 0 24 24" fill="currentColor">
		<g>
		<rect width="24" height="24" fill="none"/>
		<path fill-rule="evenodd" clip-rule="evenodd" d="M2 12C2 6.47715 6.47715 2 12 2C17.5228 2 22 6.47715 22 12C22 17.5228 17.5228 22 12 22C6.47715 22 2 17.5228 2 12ZM15.5963 10.3318C16.8872 11.0694 16.8872 12.9307 15.5963 13.6683L11.154 16.2068C9.9715 16.8825 8.5002 16.0287 8.5002 14.6667L8.5002 9.33339C8.5002 7.97146 9.9715 7.11762 11.154 7.79333L15.5963 10.3318Z" fill="currentColor"/>
	 	</g>
	</symbol>
	<symbol id="left" viewBox="0 0 24 24" fill="currentColor">
		<g>
		<path d="m22 12.002c0-5.517-4.48-9.997-9.998-9.997-5.517 0-9.997 4.48-9.997 9.997 0 5.518 4.48 9.998 9.997 9.998 5.518 0 9.998-4.48 9.998-9.998zm-8.211-4.843c.141-.108.3-.157.456-.157.389 0 .755.306.755.749v8.501c0 .445-.367.75-.755.75-.157 0-.316-.05-.457-.159-1.554-1.203-4.199-3.252-5.498-4.258-.184-.142-.29-.36-.29-.592 0-.23.107-.449.291-.591z" fill-rule="nonzero"/>
	 	</g>
	</symbol>
	<symbol id="up" viewBox="0 0 24 24" fill="currentColor">
		<g>
		<path d="m11.998 21.995c5.517 0 9.997-4.48 9.997-9.997 0-5.518-4.48-9.998-9.997-9.998-5.518 0-9.998 4.48-9.998 9.998 0 5.517 4.48 9.997 9.998 9.997zm4.843-8.211c.108.141.157.3.157.456 0 .389-.306.755-.749.755h-8.501c-.445 0-.75-.367-.75-.755 0-.157.05-.316.159-.457 1.203-1.554 3.252-4.199 4.258-5.498.142-.184.36-.29.592-.29.23 0 .449.107.591.291z" fill-rule="nonzero"/>
	 	</g>
	</symbol>
	<symbol id="bottom" viewBox="0 0 24 24" fill="currentColor">
		<g>
		<path d="m11.998 2c5.517 0 9.997 4.48 9.997 9.998 0 5.517-4.48 9.997-9.997 9.997-5.518 0-9.998-4.48-9.998-9.997 0-5.518 4.48-9.998 9.998-9.998zm4.843 8.211c.108-.141.157-.3.157-.456 0-.389-.306-.755-.749-.755h-8.501c-.445 0-.75.367-.75.755 0 .157.05.316.159.457 1.203 1.554 3.252 4.199 4.258 5.498.142.184.36.29.592.29.23 0 .449-.107.591-.291z" fill-rule="nonzero"/>
	 	</g>
	</symbol>
	<symbol id="right" viewBox="0 0 24 24" fill="currentColor">
		<g>
		<path d="m2.009 12.002c0-5.517 4.48-9.997 9.998-9.997s9.998 4.48 9.998 9.997c0 5.518-4.48 9.998-9.998 9.998s-9.998-4.48-9.998-9.998zm8.211-4.843c-.141-.108-.3-.157-.456-.157-.389 0-.755.306-.755.749v8.501c0 .445.367.75.755.75.157 0 .316-.05.457-.159 1.554-1.203 4.199-3.252 5.498-4.258.184-.142.29-.36.29-.592 0-.23-.107-.449-.291-.591z" fill-rule="nonzero"/>
	 	</g>
	</symbol>
	<symbol id="reload" viewBox="0 0 24 24" fill="currentColor">
		<g>
		<g id="Page-1" stroke="none" stroke-width="1" fill="none" fill-rule="evenodd">
        <g id="Reload">
            <rect id="Rectangle" fill-rule="nonzero" x="0" y="0" width="24" height="24">

</rect>
            <path d="M4,13 C4,17.4183 7.58172,21 12,21 C16.4183,21 20,17.4183 20,13 C20,8.58172 16.4183,5 12,5 C10.4407,5 8.98566,5.44609 7.75543,6.21762" id="Path" stroke="#0C0310" stroke-width="2" stroke-linecap="round">

</path>
            <path d="M9.2384,1.89795 L7.49856,5.83917 C7.27552,6.34441 7.50429,6.9348 8.00954,7.15784 L11.9508,8.89768" id="Path" stroke="#0C0310" stroke-width="2" stroke-linecap="round">

</path>
        </g>
    </g>
	 	</g>
	</symbol>
</svg>